<svg width="153" height="193" viewBox="0 0 153 193" fill="none" xmlns="http://www.w3.org/2000/svg">
<mask id="path-1-inside-1_84_2" fill="white">
<path d="M89.4518 133.831C75.3772 117.106 67.1765 102.103 63.9603 89.177C63.3629 86.7757 61.6563 86.4656 62.1085 88.8984C65.0224 104.574 73.8428 122.197 82.5471 136.674C93.1005 154.227 91.3571 178.468 86.758 189.193C86.1039 190.719 87.1851 192.725 88.8449 192.725H96.5855C97.091 192.725 97.577 192.54 97.9321 192.181C105.582 184.43 113.874 162.852 89.4518 133.831Z"/>
</mask>
<path d="M63.9603 89.177L37.7592 95.696L63.9603 89.177ZM89.4518 133.831L68.7934 151.216H68.7934L89.4518 133.831ZM97.9321 192.181L117.148 211.147L117.148 211.147L97.9321 192.181ZM86.758 189.193L111.573 199.834L111.573 199.834L86.758 189.193ZM82.5471 136.674L59.4073 150.586L82.5471 136.674ZM62.1085 88.8984L88.6538 83.9641V83.9641L62.1085 88.8984ZM37.7592 95.696C42.3135 114.001 53.1674 132.647 68.7934 151.216L110.11 116.446C97.5869 101.565 92.0394 90.2055 90.1615 82.6579L37.7592 95.696ZM68.7934 151.216C77.8571 161.986 78.7136 168.708 78.7191 171.046C78.7256 173.795 77.6229 174.321 78.7159 173.214L117.148 211.147C125.891 202.289 132.76 188.151 132.719 170.918C132.677 153.274 125.469 134.697 110.11 116.446L68.7934 151.216ZM96.5855 165.725H88.8449V219.725H96.5855V165.725ZM111.573 199.834C115.819 189.932 117.72 177.046 117.321 164.627C116.913 151.925 114.006 136.599 105.687 122.762L59.4073 150.586C61.6413 154.302 63.1401 159.873 63.3487 166.362C63.4482 169.458 63.235 172.33 62.8599 174.688C62.6743 175.854 62.4638 176.802 62.2708 177.513C62.0716 178.248 61.9336 178.575 61.9432 178.553L111.573 199.834ZM105.687 122.762C97.3736 108.935 90.6521 94.7145 88.6538 83.9641L35.5632 93.8326C39.3927 114.434 50.3121 135.459 59.4073 150.586L105.687 122.762ZM88.8449 165.725C99.7962 165.725 107.097 172.403 110.369 178.122C113.56 183.7 115.05 191.726 111.573 199.834L61.9432 178.553C57.8122 188.187 59.5153 197.978 63.4986 204.94C67.5628 212.043 76.2339 219.725 88.8449 219.725V165.725ZM78.716 173.214C83.906 167.955 90.5696 165.725 96.5855 165.725V219.725C103.612 219.725 111.248 217.125 117.148 211.147L78.716 173.214ZM90.1615 82.6579C89.3585 79.4303 87.8914 75.6435 85.2588 71.991C83.331 69.3163 77.6046 62.3335 67.0479 60.587C60.9276 59.5745 53.7985 60.5663 47.4563 64.7559C41.4771 68.7056 38.4048 74.0235 36.9157 77.9038C34.1972 84.9873 35.082 91.2437 35.5632 93.8326L88.6538 83.9641C88.9089 85.3366 89.8375 90.7195 87.3304 97.252C85.947 100.857 83.0224 105.98 77.2201 109.813C71.0547 113.885 64.1316 114.839 58.2337 113.863C48.1218 112.19 42.9058 105.583 41.4519 103.566C39.2932 100.571 38.2635 97.723 37.7592 95.696L90.1615 82.6579Z" fill="#242424" mask="url(#path-1-inside-1_84_2)"/>
<mask id="path-3-inside-2_84_2" fill="white">
<path d="M77.2834 122.178C74.2446 123.667 67.5757 124.009 61.2643 114.968C60.0064 113.166 61.1071 111.595 62.6331 113.176C66.2339 116.907 71.8813 118.484 75.6678 118.599C76.9681 118.639 78.3183 120.028 77.9816 121.285C77.8791 121.667 77.6393 122.004 77.2834 122.178Z"/>
</mask>
<path d="M61.2643 114.968L56.3444 118.402L56.3444 118.402L61.2643 114.968ZM77.2834 122.178L79.9229 127.567L79.9229 127.567L77.2834 122.178ZM75.6678 118.599L75.851 112.602L75.851 112.602L75.6678 118.599ZM62.6331 113.176L66.9502 109.009L66.9502 109.009L62.6331 113.176ZM66.1841 111.533C68.7436 115.2 70.958 116.391 72.2397 116.779C73.5752 117.183 74.4401 116.89 74.644 116.79L79.9229 127.567C77.0879 128.955 73.099 129.577 68.7625 128.264C64.3721 126.935 60.0964 123.777 56.3444 118.402L66.1841 111.533ZM75.4846 124.597C70.6733 124.45 63.3278 122.535 58.3159 117.343L66.9502 109.009C69.14 111.278 73.0894 112.518 75.851 112.602L75.4846 124.597ZM72.1861 119.732C71.6591 121.698 72.5841 123.061 72.9774 123.498C73.3842 123.95 74.1824 124.557 75.4846 124.597L75.851 112.602C78.4535 112.682 80.577 114.003 81.8997 115.473C83.2091 116.929 84.6409 119.614 83.7772 122.837L72.1861 119.732ZM74.644 116.79C73.1615 117.516 72.444 118.769 72.1861 119.732L83.7772 122.837C83.3141 124.566 82.1171 126.492 79.9229 127.567L74.644 116.79ZM56.3444 118.402C55.5761 117.301 54.9812 115.974 54.785 114.494C54.6004 113.102 54.7276 111.078 56.0688 109.252C57.6161 107.145 60.1285 106.23 62.5312 106.608C64.5977 106.934 66.0691 108.096 66.9502 109.009L58.3159 117.343C58.4341 117.465 59.1956 118.231 60.6659 118.463C62.4723 118.747 64.502 118.041 65.7407 116.355C66.7732 114.949 66.7657 113.556 66.6808 112.916C66.5843 112.188 66.3235 111.733 66.1841 111.533L56.3444 118.402Z" fill="#242424" mask="url(#path-3-inside-2_84_2)"/>
<circle cx="70.1943" cy="146.465" r="6.29553" fill="#30D158"/>
<circle cx="102.347" cy="118.411" r="12.1159" transform="rotate(15 102.347 118.411)" fill="#30D158"/>
<circle cx="41.9246" cy="126.323" r="14.6903" transform="rotate(15 41.9246 126.323)" fill="#30D158"/>
<circle cx="32.4824" cy="80.6333" r="25.7095" transform="rotate(15 32.4824 80.6333)" fill="#30D158"/>
<circle cx="105.587" cy="61.9447" r="37.9756" transform="rotate(15 105.587 61.9447)" fill="#30D158"/>
<circle cx="46.9366" cy="29.6952" r="24.246" transform="rotate(15 46.9366 29.6952)" fill="#30D158"/>
</svg>
